<svg xmlns="http://www.w3.org/2000/svg" xml:space="preserve" viewBox="0 0 359.634 58.348"><g fill="#ffffff"><path d="M6.061 37.381Q0 31.495 0 22.446 0 13.399 6.061 7.51q6.06-5.886 14.819-5.887 6.786 0 12.064 3.596t7.366 9.977H28.478q-2.32-4.467-7.424-4.466t-8.033 3.19-2.929 8.526c.001 5.336.976 6.399 2.929 8.525q2.928 3.19 7.859 3.19 3.537 0 5.771-1.77 2.232-1.769 2.987-4.727H18.154v-7.54H40.31v7.54q-1.103 5.568-6.09 10.382-2.38 2.32-5.888 3.771-3.51 1.45-7.453 1.449-8.757.003-14.818-5.885M56.607 10.556v6.032q3.48-6.38 9.28-6.38V20.3h-2.436q-3.423 0-5.134 1.624t-1.711 5.685V42.92h-9.918V10.556zM73.862 38.744q-4.901-4.582-4.9-12.064 0-7.48 4.872-11.977 4.872-4.495 12.063-4.495t12.035 4.495 4.843 11.977-4.813 12.064q-4.815 4.582-12.006 4.582-7.193 0-12.094-4.582m16.849-5.974q1.97-2.087 1.972-6.031 0-3.944-2.03-6.003c-2.03-2.059-2.958-2.06-4.813-2.06q-2.784.001-4.785 2.06c-2.001 2.059-2.001 3.374-2.001 6.003q0 3.945 2.059 6.031 2.058 2.09 4.844 2.089 2.781-.001 4.754-2.089M145.521 10.556h9.338l-9.686 32.364h-10.672l-4.524-19.14-4.582 19.14h-10.672l-9.686-32.364h9.918l5.046 22.736 4.987-22.736h10.498l4.988 22.736z"/></g><g fill="#22c55e"><path d="M166.061 37.381Q160 31.495 160 22.446q0-9.047 6.061-14.936 6.06-5.886 14.818-5.887 6.787 0 12.064 3.596t7.366 9.977h-11.832q-2.321-4.467-7.425-4.466c-5.104.001-6.08 1.064-8.032 3.19q-2.93 3.19-2.929 8.526c.001 5.336.976 6.399 2.929 8.525q2.929 3.19 8.032 3.19c5.103 0 5.877-1.488 7.425-4.466h11.832q-2.09 6.38-7.366 9.976-5.278 3.597-12.064 3.596-8.757.002-14.818-5.886M208.603 38.686q-4.292-4.64-4.292-11.89t4.292-11.919 10.47-4.669q6.176 0 9.482 4.582v-4.234h9.918V42.92h-9.918v-4.698q-3.595 5.104-9.628 5.104c-6.033 0-7.463-1.546-10.324-4.64m17.807-6.032q2.145-2.089 2.146-5.916 0-3.829-2.146-5.888t-4.931-2.059q-2.784 0-4.93 2.088t-2.146 5.916c0 3.828.715 4.515 2.146 5.887q2.145 2.06 4.93 2.06t4.931-2.088M257.091 10.556v6.032q3.48-6.38 9.28-6.38V20.3h-2.436q-3.423 0-5.134 1.624t-1.711 5.685V42.92h-9.918V10.556zM285.51 43.326q-7.077 0-11.6-4.554-4.524-4.551-4.524-12.093 0-7.538 4.495-12.006 4.495-4.466 11.629-4.466c7.134 0 8.7 1.47 11.832 4.408s4.698 7.018 4.698 12.237q0 1.683-.232 3.133h-22.271q.29 2.147 1.914 3.509t3.509 1.363q1.884 0 2.813-.378.926-.376 1.362-.754.435-.377 1.131-1.247h10.73q-1.392 4.872-5.568 7.859-4.175 2.99-9.918 2.989m4.235-23.229q-1.74-1.42-4.118-1.421-2.379 0-4.002 1.421-1.625 1.421-2.03 3.684h12.122q-.232-2.264-1.972-3.684M308.42 42.92V0h9.918v42.92zM335.506 42.282 322.92 10.556h11.252l7.191 21.169 7.889-21.169h10.382l-20.648 47.792h-10.382z"/></g></svg>